
        <svg xmlns="http://www.w3.org/2000/svg" xmlns:xlink="http://www.w3.org/1999/xlink" version="1.1" width="3162.3083859332733" height="534.8276337306156" viewBox="0 0 3162.3083859332733 534.8276337306156">
			
			<g transform="scale(8.115419296663662) translate(10, 10)">
				<defs id="SvgjsDefs4950"/><g id="SvgjsG4951" featureKey="5TMTKC-0" transform="matrix(0.1707300395232122,0,0,0.1707300395232122,0,9)" fill="#000"><polygon xmlns="http://www.w3.org/2000/svg" points="244.1,0 244,0.1 243.9,0 103.1,83.1 103.1,50 57.9,50 57.9,109.6 58.1,109.6 0,143.9 15.3,169.8 244,34.9   472.8,169.8 488.1,143.9 "/></g><g id="SvgjsG4952" featureKey="7UBp9i-0" transform="matrix(3.0807148127072903,0,0,3.0807148127072903,98.37892704643941,-16.389401863443236)" fill="#000"><path d="M12.64 20 l-2.68 0 l0 -6.9 l-5.78 0 l0 6.9 l-2.68 0 l0 -14.24 l2.68 0 l0 4.72 l5.78 0 l0 -4.72 l2.68 0 l0 14.24 z M19.4 20.22 c-1.24 0 -2.46 -0.5 -3.4 -1.4 c-0.9 -0.94 -1.4 -2.16 -1.4 -3.4 c0 -1.26 0.5 -2.48 1.4 -3.4 c0.92 -0.88 2.12 -1.38 3.4 -1.38 c1.32 0 2.52 0.5 3.38 1.38 c0.92 0.92 1.42 2.12 1.42 3.4 s-0.5 2.48 -1.42 3.4 c-0.9 0.9 -2.1 1.4 -3.38 1.4 z M19.4 12.92 c-1.34 0 -2.44 1.12 -2.44 2.5 s1.1 2.5 2.44 2.5 c1.36 0 2.46 -1.12 2.46 -2.5 s-1.1 -2.5 -2.46 -2.5 z M41.099999999999994 20 l-2.5 0 l0 -4.9 c0 -1.06 -0.9 -2 -1.94 -2 c-1.08 0 -1.96 0.92 -1.96 2 l0 4.9 l-2.5 0 l0 -4.9 c0 -1.08 -0.88 -2 -1.94 -2 s-1.94 0.94 -1.94 2 l0 4.9 l-2.5 0 l0 -9.16 l2.5 0 l0 0.66 c0.62 -0.62 1.28 -0.84 1.94 -0.84 c0.58 0 1.16 0.12 1.72 0.36 c0.52 0.24 1 0.58 1.44 1 c0 0.02 0.02 0.02 0.04 0.04 l0.04 -0.04 c0.42 -0.42 0.9 -0.76 1.44 -1 c0.56 -0.24 1.14 -0.36 1.72 -0.36 c1.18 0 2.3 0.46 3.14 1.28 c0.84 0.86 1.3 1.98 1.3 3.16 l0 4.9 z M47.099999999999994 20.22 l-0.02 0 c-0.58 0 -1.18 -0.14 -1.74 -0.4 c-0.52 -0.22 -1 -0.58 -1.44 -1.04 c-0.7 -0.76 -1.12 -1.76 -1.22 -2.8 c-0.02 -0.18 -0.04 -0.36 -0.04 -0.56 c0 -0.4 0.06 -0.82 0.16 -1.24 c0.18 -0.8 0.56 -1.54 1.1 -2.1 c0.4 -0.44 0.86 -0.78 1.44 -1.06 c0.54 -0.26 1.14 -0.38 1.76 -0.38 c0.64 0 1.22 0.12 1.76 0.38 c0.6 0.28 1.08 0.64 1.44 1.06 c0.52 0.56 0.92 1.28 1.12 2.1 c0.1 0.38 0.14 0.78 0.14 1.24 l0 0.46 l-6.72 0 l0.02 0.14 c0.26 1.24 1.2 2.14 2.24 2.14 l0.02 0 c0.58 -0.04 1.22 -0.4 1.6 -0.72 l0.22 -0.18 l1.66 1.44 l-0.3 0.26 c-0.22 0.2 -0.5 0.44 -0.8 0.6 l-0.02 0 c-0.72 0.42 -1.5 0.64 -2.38 0.66 z M47.099999999999994 12.719999999999999 c-0.78 0 -1.56 0.54 -1.98 1.38 l-0.08 0.16 l4.14 0 l-0.08 -0.16 c-0.46 -0.86 -1.22 -1.38 -2 -1.38 z M57.65999999999999 20 l-2.68 0 l0 -11.6 l-3.5 0 l0 -2.64 l9.68 0 l0 2.64 l-3.5 0 l0 11.6 z M64.25999999999999 20 l-2.52 0 l0 -9.16 l2.52 0 l0 0.74 c0.72 -0.72 1.8 -0.96 2.52 -0.96 l0.6 0 l-0.6 2.5 l-0.38 0 c-1.18 0 -2.14 0.92 -2.14 2.02 l0 4.86 z M72.38 20.22 l-0.02 0 c-0.58 0 -1.18 -0.14 -1.74 -0.4 c-0.52 -0.22 -1 -0.58 -1.44 -1.04 c-0.7 -0.76 -1.12 -1.76 -1.22 -2.8 c-0.02 -0.18 -0.04 -0.36 -0.04 -0.56 c0 -0.4 0.06 -0.82 0.16 -1.24 c0.18 -0.8 0.56 -1.54 1.1 -2.1 c0.4 -0.44 0.86 -0.78 1.44 -1.06 c0.54 -0.26 1.14 -0.38 1.76 -0.38 c0.64 0 1.22 0.12 1.76 0.38 c0.6 0.28 1.08 0.64 1.44 1.06 c0.52 0.56 0.92 1.28 1.12 2.1 c0.1 0.38 0.14 0.78 0.14 1.24 l0 0.46 l-6.72 0 l0.02 0.14 c0.26 1.24 1.2 2.14 2.24 2.14 l0.02 0 c0.58 -0.04 1.22 -0.4 1.6 -0.72 l0.22 -0.18 l1.66 1.44 l-0.3 0.26 c-0.22 0.2 -0.5 0.44 -0.8 0.6 l-0.02 0 c-0.72 0.42 -1.5 0.64 -2.38 0.66 z M72.38 12.719999999999999 c-0.78 0 -1.56 0.54 -1.98 1.38 l-0.08 0.16 l4.14 0 l-0.08 -0.16 c-0.46 -0.86 -1.22 -1.38 -2 -1.38 z M88.05999999999999 20 l-3.12 0 l-3.18 -4.06 l-0.82 0.84 l0 3.22 l-2.6 0 l0 -14.68 l2.6 0 l0 7.94 l2.52 -2.42 l3.54 0 l-3.44 3.28 z"/></g>
			</g>
		</svg>
	